<svg width="12" height="12" viewBox="0 0 12 12" fill="none" xmlns="http://www.w3.org/2000/svg">
<path fill-rule="evenodd" clip-rule="evenodd" d="M11.1357 1.70711C11.5262 1.31658 11.5262 0.683418 11.1357 0.292893C10.7452 -0.0976311 10.112 -0.0976311 9.72147 0.292893L5.71429 4.30007L1.70711 0.292893C1.31658 -0.0976311 0.683418 -0.0976311 0.292893 0.292893C-0.0976311 0.683418 -0.0976311 1.31658 0.292893 1.70711L4.30007 5.71429L0.292893 9.72147C-0.0976311 10.112 -0.0976311 10.7452 0.292893 11.1357C0.683418 11.5262 1.31658 11.5262 1.70711 11.1357L5.71429 7.1285L9.72147 11.1357C10.112 11.5262 10.7452 11.5262 11.1357 11.1357C11.5262 10.7452 11.5262 10.112 11.1357 9.72147L7.1285 5.71429L11.1357 1.70711Z" fill="#8B8FA1"/>
</svg>
