<svg width="33" height="34" viewBox="0 0 33 34" fill="none" xmlns="http://www.w3.org/2000/svg">
<ellipse cx="16.5218" cy="17" rx="16.3387" ry="17" fill="#F3F3F3"/>
<path d="M19.4392 24C18.6518 24 17.9746 23.4212 17.8293 22.6234L17.1739 19.0303C17.1049 18.6507 16.7799 18.3753 16.4015 18.3753C16.0231 18.3753 15.6981 18.651 15.629 19.0303L14.9736 22.6234C14.8276 23.4215 14.1506 24 13.3638 24C12.5254 24 11.8248 23.3512 11.7352 22.4911L11.4788 20.0311C11.3876 19.1531 11.2074 18.2819 10.9448 17.4413L10.4439 15.84C10.0127 14.4617 9.79395 13.0277 9.79395 11.5781C9.79395 10.1568 10.9166 9 12.2964 9C13.2742 9 14.2174 9.24814 15.2291 9.7567C16.0177 10.1536 16.7847 10.1542 17.5728 9.7567C18.5856 9.24787 19.5282 9 20.4563 9C21.8866 9 23.0093 10.1568 23.0093 11.5781C23.0093 13.0274 22.7905 14.4617 22.3593 15.8405L21.8584 17.4418C21.5958 18.2824 21.4156 19.1537 21.3245 20.0316L21.068 22.4917C20.9781 23.3512 20.2784 24 19.4392 24Z" fill="#A3EFD7"/>
<path d="M15.5514 15.2996C15.3293 15.1839 15.0582 15.2777 14.9473 15.509C14.752 15.9158 14.3628 16.1682 13.9279 16.1821C14.188 14.9702 14.6103 13.7872 15.28 12.6884C15.4133 12.4696 15.3509 12.1803 15.1414 12.0414C14.9322 11.9033 14.6531 11.9677 14.5197 12.1865C14.0981 12.8785 13.7713 13.5965 13.5128 14.3297C13.2546 14.026 13.0977 13.6352 13.0977 13.2191C13.0977 12.9603 12.896 12.7503 12.6472 12.7503C12.3984 12.7503 12.1967 12.9603 12.1967 13.2191C12.1967 14.046 12.5743 14.8209 13.2058 15.3153C12.5866 17.6503 12.6015 20.0885 12.6893 22.3009C12.6993 22.5527 12.8988 22.7501 13.1393 22.7501H13.158C13.4065 22.7395 13.6001 22.5207 13.5899 22.2627C13.5249 20.6245 13.5028 18.86 13.7603 17.1252H13.8925C14.686 17.1252 15.3992 16.6666 15.7534 15.9283C15.8643 15.697 15.7745 15.4149 15.5514 15.2996Z" fill="#1AD99B"/>
<path d="M20.6063 13.2189C20.6063 12.96 20.4046 12.7501 20.1558 12.7501C19.9071 12.7501 19.7053 12.96 19.7053 13.2189C19.7053 13.6177 19.5389 13.9889 19.2637 14.2544C19.0098 13.5474 18.6907 12.8545 18.2836 12.1862C18.1496 11.9675 17.8708 11.9031 17.6618 12.042C17.4516 12.1809 17.3897 12.4707 17.5232 12.6889C18.1876 13.7787 18.6081 14.9518 18.8686 16.1533C18.4481 16.0769 18.0698 15.8357 17.8282 15.4588C17.6901 15.2432 17.41 15.1845 17.2033 15.3287C16.9962 15.4719 16.9402 15.763 17.0783 15.9786C17.5204 16.6685 18.2497 17.0873 19.0427 17.1186C19.3015 18.8556 19.2794 20.6222 19.2139 22.2617C19.2039 22.5205 19.3972 22.7384 19.6457 22.7491H19.6644C19.9047 22.7491 20.1042 22.5517 20.1145 22.2999C20.2036 20.0498 20.2167 17.5662 19.5643 15.1944C20.2074 14.7651 20.6063 14.0207 20.6063 13.2189Z" fill="#1AD99B"/>
<path d="M14.9004 11.9688C14.7515 11.9688 14.6049 12.0457 14.5189 12.1862C14.0979 12.8782 13.7711 13.5962 13.5128 14.3294C13.2546 14.0257 13.0977 13.6349 13.0977 13.2188C13.0977 12.96 12.896 12.75 12.6472 12.75C12.3984 12.75 12.1967 12.96 12.1967 13.2188C12.1967 14.0457 12.5743 14.8206 13.2058 15.315C12.5866 17.65 12.6015 20.0882 12.6893 22.3006C12.6993 22.5525 12.8988 22.7499 13.1393 22.7499H13.158C13.4065 22.7392 13.6001 22.5204 13.5899 22.2624C13.5249 20.6242 13.5028 18.8597 13.7603 17.1249H13.8925C14.686 17.1249 15.3992 16.6663 15.7534 15.928C15.8646 15.6962 15.7745 15.4149 15.5521 15.2995C15.4872 15.2661 15.4189 15.2501 15.3509 15.2501C15.1858 15.2501 15.0259 15.3452 14.9473 15.5089C14.752 15.9157 14.3628 16.1682 13.9279 16.182C14.188 14.9702 14.6103 13.7872 15.28 12.6883C15.4133 12.4696 15.3509 12.1803 15.1414 12.0414C15.0667 11.9925 14.9833 11.9688 14.9004 11.9688Z" fill="#1AD99B"/>
</svg>
