<svg width="33" height="34" viewBox="0 0 33 34" fill="none" xmlns="http://www.w3.org/2000/svg">
<ellipse cx="16.5218" cy="17" rx="16.3387" ry="17" fill="#F3F3F3"/>
<path d="M10.5215 15.8038V17.7244C10.5215 19.1827 11.6771 20.3651 13.1024 20.3651H19.9472C20.1406 21.3688 21.0164 21.8168 22.0579 21.8055C23.2089 21.7928 24.1307 20.8227 24.1307 19.6451V15.8038C24.1307 13.0193 21.9246 10.7622 19.2031 10.7622H15.4486C12.728 10.7622 10.5215 13.0193 10.5215 15.8038Z" fill="#A3EFD7"/>
<path fill-rule="evenodd" clip-rule="evenodd" d="M10.5215 15.8038V17.7244C10.5215 19.1827 11.6771 20.3651 13.1024 20.3651H19.9472C20.1406 21.3688 21.0165 21.8168 22.0579 21.8055C23.2089 21.7928 24.1307 20.8227 24.1307 19.6451V15.8038C24.1307 13.0193 21.9246 10.7622 19.2031 10.7622H15.4486C12.728 10.7622 10.5215 13.0193 10.5215 15.8038Z" stroke="#F9F9F9" stroke-width="0.75"/>
<path d="M17.4437 16.0438H14.7456V15.3235C14.7456 14.9255 14.4304 14.603 14.0415 14.603C13.6526 14.603 13.3374 14.9255 13.3374 15.3235V16.7638C13.3374 17.1617 13.6526 17.4842 14.0415 17.4842H17.4437C18.026 17.4842 18.4997 17.9689 18.4997 18.5646V19.6451H13.8068C13.4179 19.6451 13.1027 19.9676 13.1027 20.3654C13.1027 20.7634 13.4179 21.0859 13.8068 21.0859H19.9075V18.5651C19.9075 17.1748 18.8025 16.0438 17.4437 16.0438Z" fill="#75E8C3"/>
<path d="M26.647 21.0851H21.3152V18.5557L24.6757 16.5705C25.3491 16.173 25.5795 15.2918 25.191 14.6028C24.8026 13.9137 23.9413 13.6779 23.2678 14.0754L19.2037 16.4763C18.7526 16.7431 18.506 17.2264 18.5055 17.7241H18.4996V19.6448H10.8322C9.66586 19.6448 8.72021 20.6119 8.72021 21.8056C8.72021 22.9993 9.66546 23.9664 10.8322 23.9664H26.647C27.4244 23.9664 28.0548 23.3213 28.0548 22.526C28.0548 21.7302 27.4244 21.0851 26.647 21.0851Z" fill="#1AD99B"/>
<path d="M6.72596 23.966C5.23806 23.966 4.02747 22.7274 4.02747 21.205C4.02747 19.6827 5.23806 18.4441 6.72596 18.4441C8.21388 18.4441 9.42445 19.6827 9.42445 21.205C9.42404 22.7274 8.21344 23.966 6.72596 23.966Z" fill="#A3EFD7"/>
<path d="M17.402 12.2024C15.4612 12.2024 13.8822 10.5868 13.8822 8.60119C13.8822 6.61559 15.4612 5 17.402 5C19.3426 5 20.9217 6.61559 20.9217 8.60119C20.9217 10.5868 19.3426 12.2024 17.402 12.2024Z" fill="#75E8C3"/>
</svg>
