<svg width="31" height="31" viewBox="0 0 31 31" fill="none" xmlns="http://www.w3.org/2000/svg">
<circle cx="15.5" cy="15.5" r="15.5" fill="#EEF0F3"/>
<path d="M18.3335 8.33301H11.6668C9.82588 8.33301 8.3335 9.82539 8.3335 11.6663V18.333C8.3335 20.174 9.82588 21.6663 11.6668 21.6663H18.3335C20.1744 21.6663 21.6668 20.174 21.6668 18.333V11.6663C21.6668 9.82539 20.1744 8.33301 18.3335 8.33301Z" stroke="#18E176" stroke-width="2" stroke-linecap="round" stroke-linejoin="round"/>
<path d="M17.6668 14.5802C17.7491 15.135 17.6543 15.7017 17.396 16.1995C17.1376 16.6974 16.7289 17.1011 16.2279 17.3533C15.7269 17.6055 15.1591 17.6933 14.6053 17.6042C14.0515 17.515 13.54 17.2536 13.1434 16.857C12.7467 16.4604 12.4853 15.9488 12.3962 15.395C12.3071 14.8412 12.3948 14.2735 12.647 13.7725C12.8992 13.2714 13.3029 12.8627 13.8008 12.6044C14.2987 12.346 14.8653 12.2513 15.4201 12.3335C15.9861 12.4175 16.51 12.6812 16.9146 13.0857C17.3192 13.4903 17.5829 14.0143 17.6668 14.5802Z" stroke="#18E176" stroke-width="2" stroke-linecap="round" stroke-linejoin="round"/>
<path d="M18.6667 11.333H18.6742" stroke="#18E176" stroke-width="2" stroke-linecap="round" stroke-linejoin="round"/>
</svg>
