<svg width="17" height="22" viewBox="0 0 17 22" fill="none" xmlns="http://www.w3.org/2000/svg">
<path fill-rule="evenodd" clip-rule="evenodd" d="M3.90381 4.73718C5.12279 3.51819 6.77609 2.83337 8.5 2.83337C10.2239 2.83337 11.8772 3.51819 13.0962 4.73718C14.3152 5.95617 15 7.60947 15 9.33337C15 11.8481 13.3593 14.3126 11.524 16.2498C10.6269 17.1968 9.72633 17.9726 9.04895 18.512C8.84222 18.6766 8.65703 18.8186 8.5 18.9362C8.34297 18.8186 8.15778 18.6766 7.95105 18.512C7.27367 17.9726 6.37311 17.1968 5.47595 16.2498C3.64074 14.3126 2 11.8481 2 9.33337C2 7.60947 2.68482 5.95617 3.90381 4.73718ZM7.94478 20.9984C7.94505 20.9986 7.9453 20.9988 8.5 20.1667L7.9453 20.9988C8.2812 21.2227 8.7188 21.2227 9.0547 20.9988L8.5 20.1667C9.0547 20.9988 9.05495 20.9986 9.05522 20.9984L9.05592 20.9979L9.05783 20.9967L9.06368 20.9927L9.08338 20.9794C9.10001 20.9681 9.12357 20.952 9.1536 20.9312C9.21364 20.8896 9.29959 20.8293 9.40776 20.7512C9.62399 20.595 9.92958 20.3674 10.2948 20.0766C11.0237 19.4962 11.9981 18.6575 12.976 17.6253C14.8907 15.6041 17 12.652 17 9.33337C17 7.07903 16.1045 4.91703 14.5104 3.32297C12.9163 1.72891 10.7543 0.833374 8.5 0.833374C6.24566 0.833374 4.08365 1.72891 2.48959 3.32297C0.895533 4.91703 0 7.07903 0 9.33337C0 12.652 2.10926 15.6041 4.02405 17.6253C5.00189 18.6575 5.97633 19.4962 6.7052 20.0766C7.07042 20.3674 7.37601 20.595 7.59224 20.7512C7.70041 20.8293 7.78636 20.8896 7.8464 20.9312C7.87643 20.952 7.89999 20.9681 7.91662 20.9794L7.93632 20.9927L7.94217 20.9967L7.94408 20.9979L7.94478 20.9984ZM7 9.33337C7 8.50495 7.67157 7.83337 8.5 7.83337C9.32843 7.83337 10 8.50495 10 9.33337C10 10.1618 9.32843 10.8334 8.5 10.8334C7.67157 10.8334 7 10.1618 7 9.33337ZM8.5 5.83337C6.567 5.83337 5 7.40038 5 9.33337C5 11.2664 6.567 12.8334 8.5 12.8334C10.433 12.8334 12 11.2664 12 9.33337C12 7.40038 10.433 5.83337 8.5 5.83337Z" fill="#979797"/>
</svg>
