<svg width="17" height="17" viewBox="0 0 17 17" fill="none" xmlns="http://www.w3.org/2000/svg">
<path fill-rule="evenodd" clip-rule="evenodd" d="M0 8.38636C0 3.7547 3.7547 0 8.38636 0C13.018 0 16.7727 3.7547 16.7727 8.38636C16.7727 13.018 13.018 16.7727 8.38636 16.7727C3.7547 16.7727 0 13.018 0 8.38636ZM9.38636 14.6949V12.8182C9.38636 12.2659 8.93865 11.8182 8.38636 11.8182C7.83408 11.8182 7.38636 12.2659 7.38636 12.8182V14.6949C4.66011 14.2662 2.50655 12.1126 2.07784 9.38636H3.95455C4.50683 9.38636 4.95455 8.93865 4.95455 8.38636C4.95455 7.83408 4.50683 7.38636 3.95455 7.38636H2.07784C2.50655 4.66011 4.66011 2.50655 7.38636 2.07784V3.95455C7.38636 4.50683 7.83408 4.95455 8.38636 4.95455C8.93865 4.95455 9.38636 4.50683 9.38636 3.95455V2.07784C12.1126 2.50655 14.2662 4.66011 14.6949 7.38636H12.8182C12.2659 7.38636 11.8182 7.83408 11.8182 8.38636C11.8182 8.93865 12.2659 9.38636 12.8182 9.38636H14.6949C14.2662 12.1126 12.1126 14.2662 9.38636 14.6949Z" fill="#18E176"/>
</svg>
