<svg width="33" height="34" viewBox="0 0 33 34" fill="none" xmlns="http://www.w3.org/2000/svg">
<ellipse cx="16.5218" cy="17" rx="16.3387" ry="17" fill="#F3F3F3"/>
<path d="M24.556 8.93408L21.8209 11.7871C21.7165 11.8957 21.5912 11.9392 21.4555 11.9392C21.3198 11.9392 21.1841 11.8957 21.0902 11.7871V11.7763C20.8814 11.559 20.8814 11.2332 21.0902 11.0159L23.8252 8.16293C24.0235 7.94569 24.3576 7.94569 24.5559 8.16293C24.7648 8.3802 24.7648 8.71692 24.556 8.93408Z" fill="#A3EFD7"/>
<path d="M21.8207 11.0159C21.2152 10.386 20.2235 10.386 19.6075 11.0159L18.1356 12.5583C17.9268 12.7647 17.9268 13.1123 18.1356 13.3186L18.8664 14.0899L19.6075 14.8611C19.7015 14.9588 19.8372 15.0132 19.9729 15.0132C20.1191 15.0132 20.2443 14.9588 20.3488 14.8611L21.8207 13.3187C22.4366 12.6887 22.4366 11.6568 21.8207 11.0159Z" fill="#75E8C3"/>
<path d="M12.9367 22.562L10.0137 25.6142C9.90937 25.7119 9.77366 25.7662 9.63792 25.7662C9.51264 25.7662 9.37694 25.7119 9.27258 25.6142L8.53139 24.843L7.80063 24.0718C7.59185 23.8654 7.59185 23.5178 7.80063 23.3114L10.7236 20.2593C10.9324 20.0529 11.2561 20.0529 11.4649 20.2593L12.1956 21.0305L12.9368 21.8017C13.1455 22.008 13.1455 22.3556 12.9367 22.562Z" fill="#A3EFD7"/>
<path d="M20.8082 15.241C20.8082 15.6756 20.6411 16.0883 20.3488 16.3924L19.973 16.7726L19.1796 16.7074L19.2423 17.5437L18.5011 18.315L16.716 18L15.9121 17.1636L15.1187 16.3272L14.8055 14.4699L16.6533 12.5582C17.2692 11.9173 18.261 11.9173 18.8665 12.5474L20.3488 14.0897C20.6411 14.3939 20.8082 14.8066 20.8082 15.241Z" fill="#A3EFD7"/>
<path d="M17.029 19.8463L16.2252 19.7812L16.2878 20.6175L15.0143 21.9426C14.9098 22.0513 14.7741 22.1056 14.6384 22.1056C14.5027 22.1056 14.3774 22.0513 14.2731 21.9426L12.7907 20.4112L11.3187 18.8796C11.1099 18.6624 11.1099 18.3148 11.3187 18.1084L14.8055 14.4697L16.6533 16.3922L18.501 18.3148L17.029 19.8463Z" fill="#1AD99B"/>
<path d="M10.755 26.3746C10.5462 26.5918 10.2121 26.5918 10.0138 26.3746L8.53143 24.8431L7.05953 23.3007C6.86118 23.0943 6.86118 22.7468 7.05953 22.5404C7.26828 22.3231 7.59186 22.3231 7.80068 22.5404L9.27266 24.0718L10.755 25.6142C10.9534 25.8206 10.9534 26.1682 10.755 26.3746Z" fill="#75E8C3"/>
<path d="M18.8703 15.6259C18.6664 15.4138 18.336 15.4138 18.1322 15.6259C17.9283 15.838 17.9283 16.1817 18.1322 16.3939L19.2393 17.5458L19.9774 16.7778L18.8703 15.6259Z" fill="#75E8C3"/>
<path d="M15.1795 18.6982C14.9756 18.9103 14.9756 19.254 15.1795 19.4661L16.2867 20.6181L17.0248 19.8501L15.9176 18.6982C15.7137 18.486 15.3834 18.486 15.1795 18.6982Z" fill="#75E8C3"/>
<path d="M14.1374 19.9117L13.6989 19.4664L13.2709 19.0211C12.3 18.0109 11.016 17.457 9.64848 17.457H9.63804C8.78202 17.457 8.07214 18.1847 8.07214 19.0863C8.07214 19.9769 8.78202 20.7156 9.63804 20.7156C10.1704 20.7156 10.682 20.9328 11.0578 21.3238L11.4858 21.7691L11.9242 22.2253C12.2896 22.6055 12.5089 23.1486 12.5089 23.6917C12.5089 24.1261 12.6655 24.5389 12.9682 24.843C13.2605 25.1471 13.6571 25.321 14.0748 25.321C14.9308 25.321 15.6407 24.5932 15.6407 23.6917C15.6407 22.2688 15.1082 20.9219 14.1374 19.9117Z" fill="#75E8C3"/>
</svg>
