<svg width="33" height="34" viewBox="0 0 33 34" fill="none" xmlns="http://www.w3.org/2000/svg">
<ellipse cx="16.5218" cy="17" rx="16.3387" ry="17" fill="#F3F3F3"/>
<path d="M21.024 9.51154C15.4413 8.53177 16.5709 14.409 16.5709 14.409C16.5709 14.409 22.2195 15.5843 21.2778 9.77566C21.2561 9.64083 21.1536 9.53451 21.024 9.51154Z" fill="#75E8C3"/>
<path d="M16.4772 7C15.967 7 15.553 7.43081 15.553 7.96163V15.0557C15.553 15.5868 15.967 16.0173 16.4772 16.0173C16.9877 16.0173 17.4014 15.5868 17.4014 15.0557V7.96163C17.4014 7.43081 16.9877 7 16.4772 7Z" fill="#75E8C3"/>
<path d="M19.7759 13.2942C18.6868 13.2942 17.4358 13.7891 16.5101 14.5385L16.5094 14.5392C15.6393 13.7124 14.6756 13.2942 13.636 13.2942C11.1222 13.2942 8.83301 15.3323 8.83301 17.5704V21.3787C8.83301 22.8149 9.32395 24.2003 10.2528 25.3853C11.4091 26.8603 13.3281 27.7416 15.3862 27.7416H16.5101H17.5682C19.6264 27.7416 21.5449 26.8607 22.7016 25.3853C23.6304 24.2006 24.1214 22.8149 24.1214 21.3787V17.5704C24.1214 15.2123 22.1722 13.2942 19.7759 13.2942Z" fill="#1AD99B"/>
<path d="M10.4548 18.4492C10.1895 18.4492 9.97449 18.2266 9.97449 17.9521C9.97449 15.8959 11.5904 14.2227 13.5766 14.2227C13.8419 14.2227 14.0569 14.4453 14.0569 14.7198C14.0569 14.9943 13.8419 15.2169 13.5766 15.2169C12.1202 15.2169 10.935 16.4437 10.935 17.9518C10.935 18.2266 10.72 18.4492 10.4548 18.4492Z" fill="#A3EFD7"/>
</svg>
