<svg width="33" height="34" viewBox="0 0 33 34" fill="none" xmlns="http://www.w3.org/2000/svg">
<ellipse cx="16.5218" cy="17" rx="16.3387" ry="17" fill="#F3F3F3"/>
<path d="M26.1327 17.3061C26.1327 15.9021 25.3984 14.5577 24.2371 13.8429C24.3739 13.2689 24.3219 12.6599 24.0796 12.1072C23.8202 11.5166 23.3711 11.0546 22.8143 10.7943C22.7577 9.94727 22.4236 9.15678 21.8516 8.53265C21.1818 7.80221 20.2788 7.3999 19.308 7.3999C18.2535 7.3999 17.2701 7.89405 16.6115 8.71138C15.9533 7.89405 14.9698 7.3999 13.9154 7.3999C12.9449 7.3999 12.0416 7.80221 11.3721 8.53301C10.8127 9.14371 10.4657 9.95222 10.4097 10.7946C9.85264 11.0553 9.40352 11.5169 9.14416 12.1075C8.90178 12.6603 8.84984 13.2689 8.98665 13.8432C7.81988 14.5606 7.0907 15.8674 7.0907 17.3061C7.0907 18.7451 7.81988 20.0516 8.98631 20.7694C8.8495 21.3433 8.90144 21.9523 9.14382 22.505C9.40318 23.0956 9.85264 23.5576 10.4094 23.8183C10.4661 24.6649 10.7998 25.4554 11.3718 26.0795C12.0412 26.8103 12.9445 27.2126 13.9151 27.2126C14.9695 27.2126 15.9529 26.7185 16.6115 25.9012C17.2698 26.7185 18.2532 27.2126 19.308 27.2126C20.2785 27.2126 21.1818 26.8103 21.8513 26.0795C22.4233 25.4554 22.7573 24.6649 22.814 23.8179C23.3704 23.5573 23.8199 23.0956 24.0792 22.505C24.3216 21.9526 24.3735 21.3436 24.2367 20.7694C25.4035 20.052 26.1327 18.7451 26.1327 17.3061Z" fill="#A3EFD7"/>
<path d="M16.6113 21.402C14.4407 21.402 12.6748 19.5646 12.6748 17.3062C12.6748 15.0477 14.4407 13.21 16.6113 13.21C18.7819 13.21 20.5478 15.0474 20.5478 17.3058C20.5478 19.5643 18.7822 21.402 16.6113 21.402Z" fill="#1AD99B"/>
<path d="M18.2107 16.7255H17.1695V15.6419C17.1695 15.3211 16.92 15.0615 16.6117 15.0615C16.3035 15.0615 16.054 15.3211 16.054 15.6419V16.7255H15.0125C14.7042 16.7255 14.4547 16.9851 14.4547 17.3058C14.4547 17.6265 14.7042 17.8862 15.0125 17.8862H16.054V18.9698C16.054 19.2905 16.3035 19.5501 16.6117 19.5501C16.92 19.5501 17.1695 19.2905 17.1695 18.9698V17.8865H18.211C18.5192 17.8865 18.7687 17.6269 18.7687 17.3062C18.7687 16.9855 18.5189 16.7255 18.2107 16.7255Z" fill="#A3EFD7"/>
</svg>
