<svg width="17" height="18" viewBox="0 0 17 18" fill="none" xmlns="http://www.w3.org/2000/svg">
<path fill-rule="evenodd" clip-rule="evenodd" d="M15 8.16675C15 4.02461 11.6421 0.666748 7.5 0.666748C3.35786 0.666748 0 4.02461 0 8.16675C0 12.3089 3.35786 15.6667 7.5 15.6667C9.27084 15.6667 10.8983 15.053 12.1814 14.0267L15.2441 17.0894C15.5695 17.4148 16.0972 17.4148 16.4226 17.0894C16.748 16.7639 16.748 16.2363 16.4226 15.9108L13.3599 12.8482C14.3863 11.5651 15 9.93759 15 8.16675ZM11.701 12.2139C12.7118 11.1649 13.3333 9.73843 13.3333 8.16675C13.3333 4.94509 10.7217 2.33341 7.5 2.33341C4.27834 2.33341 1.66667 4.94509 1.66667 8.16675C1.66667 11.3884 4.27834 14.0001 7.5 14.0001C9.07168 14.0001 10.4982 13.3785 11.5471 12.3678C11.569 12.3393 11.593 12.3119 11.6191 12.2858C11.6452 12.2598 11.6726 12.2358 11.701 12.2139Z" fill="#979797"/>
</svg>
