<svg width="31" height="31" viewBox="0 0 31 31" fill="none" xmlns="http://www.w3.org/2000/svg">
<circle cx="15.5" cy="15.5" r="15.5" fill="#EEF0F3"/>
<path d="M22.686 12.5653C22.605 12.2584 22.4401 11.9771 22.2078 11.7499C21.9756 11.5228 21.6843 11.3578 21.3633 11.2717C20.1907 11 15.5 11 15.5 11C15.5 11 10.8093 11 9.63667 11.2975C9.31572 11.3837 9.02441 11.5487 8.79218 11.7758C8.55994 12.003 8.395 12.2842 8.31401 12.5912C8.09939 13.7203 7.99441 14.8657 8.00039 16.0129C7.99274 17.1689 8.09773 18.323 8.31401 19.4605C8.4033 19.758 8.57193 20.0286 8.80363 20.2461C9.03532 20.4637 9.32224 20.6208 9.63667 20.7025C10.8093 21 15.5 21 15.5 21C15.5 21 20.1907 21 21.3633 20.7025C21.6843 20.6163 21.9756 20.4513 22.2078 20.2242C22.4401 19.997 22.605 19.7158 22.686 19.4088C22.899 18.2882 23.0039 17.1516 22.9996 16.0129C23.0073 14.857 22.9023 13.7029 22.686 12.5653V12.5653Z" stroke="#18E176" stroke-width="2" stroke-linecap="round" stroke-linejoin="round"/>
<path d="M14 18L18 16L14 14V18Z" stroke="#18E176" stroke-width="2" stroke-linecap="round" stroke-linejoin="round"/>
</svg>
