<svg width="90" height="78" viewBox="0 0 90 78" fill="none" xmlns="http://www.w3.org/2000/svg">
<path d="M44.9975 78C44.3573 78 43.7195 77.8504 43.1344 77.5541C41.3737 76.6572 0 55.2498 0 27.3584C0 12.273 12.3216 0 27.4666 0C33.8839 0 40.0809 2.29917 44.9999 6.41425C49.9192 2.29917 56.1137 0 62.5332 0C77.6784 0 90 12.273 90 27.3584C90 55.2498 48.6261 76.6572 46.8656 77.5541C46.2778 77.853 45.6377 78 44.9975 78Z" fill="#18E176"/>
<path d="M33.2112 50.42C40.9812 50.42 46.7562 43.035 46.7562 35.09C46.7562 29.35 43.2562 25.535 37.6212 25.535C29.8512 25.535 24.0762 32.885 24.0762 40.83C24.0762 46.605 27.5762 50.42 33.2112 50.42ZM33.5612 44.995C31.4262 44.995 30.1662 43.28 30.1662 40.585C30.1662 36.175 33.2112 30.96 37.2712 30.96C39.4412 30.96 40.6662 32.675 40.6662 35.335C40.6662 39.745 37.6212 44.995 33.5612 44.995ZM55.3073 50.455C60.9073 50.455 66.0523 47.375 66.0523 42.44C66.0523 39.85 64.2323 38.24 62.1323 37.75C65.4923 36.805 67.8023 34.6 67.8023 31.31C67.8023 27.915 64.8973 25.535 59.6473 25.535C55.4473 25.535 52.1923 27.215 49.6723 29.63L52.5073 33.62C54.3623 32.045 56.3923 30.89 58.7023 30.89C60.6273 30.89 61.7123 31.45 61.5723 32.605C61.3623 34.32 59.5773 35.44 57.0923 35.405H54.4673L53.4173 40.445L56.4623 40.41C59.1573 40.41 60.1023 40.83 60.1023 41.81C60.1023 43.735 57.8623 45.1 55.3423 45.1C53.3123 45.1 51.2473 44.365 49.8823 42.615L45.8923 46.29C47.6073 48.635 50.6523 50.455 55.3073 50.455Z" fill="white"/>
</svg>
