<svg width="90" height="78" viewBox="0 0 90 78" fill="none" xmlns="http://www.w3.org/2000/svg">
<path d="M44.9975 78C44.3573 78 43.7195 77.8504 43.1344 77.5541C41.3737 76.6572 0 55.2498 0 27.3584C0 12.273 12.3216 0 27.4666 0C33.8839 0 40.0809 2.29917 44.9999 6.41425C49.9192 2.29917 56.1137 0 62.5332 0C77.6784 0 90 12.273 90 27.3584C90 55.2498 48.6261 76.6572 46.8656 77.5541C46.2778 77.853 45.6377 78 44.9975 78Z" fill="#A4F9CB"/>
<path d="M36.3215 50.42C44.0915 50.42 49.8665 43.035 49.8665 35.09C49.8665 29.35 46.3665 25.535 40.7315 25.535C32.9615 25.535 27.1865 32.885 27.1865 40.83C27.1865 46.605 30.6865 50.42 36.3215 50.42ZM36.6715 44.995C34.5365 44.995 33.2765 43.28 33.2765 40.585C33.2765 36.175 36.3215 30.96 40.3815 30.96C42.5515 30.96 43.7765 32.675 43.7765 35.335C43.7765 39.745 40.7315 44.995 36.6715 44.995ZM54.2527 50H60.2027L65.2077 25.955H60.4127L51.8027 31.065L53.3777 35.23L57.8927 32.71L54.2527 50Z" fill="white"/>
</svg>
