<svg width="90" height="78" viewBox="0 0 90 78" fill="none" xmlns="http://www.w3.org/2000/svg">
<path d="M44.9975 78C44.3573 78 43.7195 77.8504 43.1344 77.5541C41.3737 76.6572 0 55.2498 0 27.3584C0 12.273 12.3216 0 27.4666 0C33.8839 0 40.0809 2.29917 44.9999 6.41425C49.9192 2.29917 56.1137 0 62.5332 0C77.6784 0 90 12.273 90 27.3584C90 55.2498 48.6261 76.6572 46.8656 77.5541C46.2778 77.853 45.6377 78 44.9975 78Z" fill="#64F1A6"/>
<path d="M33.0403 50.42C40.8103 50.42 46.5853 43.035 46.5853 35.09C46.5853 29.35 43.0853 25.535 37.4503 25.535C29.6803 25.535 23.9053 32.885 23.9053 40.83C23.9053 46.605 27.4053 50.42 33.0403 50.42ZM33.3903 44.995C31.2553 44.995 29.9953 43.28 29.9953 40.585C29.9953 36.175 33.0403 30.96 37.1003 30.96C39.2703 30.96 40.4953 32.675 40.4953 35.335C40.4953 39.745 37.4503 44.995 33.3903 44.995ZM45.8264 50H64.5164L65.6364 44.645H56.1864L60.5964 42.09C64.8664 39.5 67.8414 36.665 67.8414 32.185C67.8414 28.265 64.7614 25.535 59.8264 25.535C56.0814 25.535 52.6864 27.005 49.5364 30.085L52.7564 34.11C54.9264 32.185 56.9214 30.96 59.3364 30.96C60.7364 30.96 61.7164 31.555 61.7164 32.71C61.7164 34.845 59.4064 36.77 56.9564 38.38L46.7714 45.135L45.8264 50Z" fill="white"/>
</svg>
