<svg width="112" height="483" viewBox="0 0 112 483" fill="none" xmlns="http://www.w3.org/2000/svg">
<g filter="url(#filter0_f)">
<path d="M102.359 12.2139C88.8785 7.03027 88.8399 21.7248 88.8399 21.7248C88.8399 21.7248 102.389 27.4117 102.865 12.9771C102.876 12.6421 102.671 12.3347 102.359 12.2139Z" fill="#75E8C3"/>
<path d="M92.214 3.87393C90.9385 3.61535 89.6935 4.44068 89.4349 5.71616L85.9795 22.7621C85.7208 24.0384 86.5462 25.2825 87.8218 25.5411C89.0981 25.7998 90.3421 24.9752 90.6008 23.6989L94.0562 6.65296C94.3148 5.37748 93.4903 4.13265 92.214 3.87393Z" fill="#75E8C3"/>
<path d="M97.3955 20.6699C94.6727 20.118 91.3039 20.6731 88.6247 22.0046L88.6226 22.006C86.8499 19.5784 84.6442 18.0851 82.0452 17.5582C75.7603 16.2842 69.0444 20.0212 67.9542 25.3991L66.0992 34.55C65.3997 38.0009 65.9523 41.5786 67.6973 44.8967C69.8698 49.027 74.2381 52.117 79.3836 53.1601L82.1936 53.7297L84.8389 54.2659C89.9845 55.309 95.2102 54.1647 98.8207 51.2058C101.72 48.83 103.622 45.7491 104.322 42.2982L106.177 33.1474C107.326 27.4811 103.387 21.8844 97.3955 20.6699Z" fill="#1AD99B"/>
<path d="M71.5805 28.333C70.9174 28.1986 70.4882 27.5548 70.6219 26.8952C71.6235 21.9543 76.4785 18.7528 81.4443 19.7594C82.1075 19.8939 82.5366 20.5378 82.4029 21.1973C82.2692 21.8569 81.6232 22.2828 80.96 22.1484C77.3188 21.4103 73.7581 23.7576 73.0235 27.3811C72.8896 28.0416 72.2436 28.4675 71.5805 28.333Z" fill="#A3EFD7"/>
</g>
<g filter="url(#filter1_f)">
<path d="M61.6443 441.18C60.6121 437.328 57.5276 434.201 53.6866 433.128C53.6552 431.448 53.0592 429.817 51.9608 428.486C50.7862 427.064 49.1644 426.14 47.3837 425.852C46.5991 423.571 45.0643 421.658 42.9725 420.383C40.5234 418.891 37.6497 418.478 34.878 419.22C31.8679 420.027 29.4236 422.135 28.1444 424.881C25.6644 423.142 22.4935 422.539 19.4834 423.345C16.7126 424.088 14.4296 425.883 13.0557 428.4C11.9076 430.503 11.5116 432.987 11.9709 435.341C10.5722 436.483 9.62948 438.093 9.32326 439.912C9.03767 441.614 9.33685 443.323 10.1496 444.794C7.34614 447.655 6.22524 451.799 7.28292 455.746C8.34085 459.694 11.3831 462.721 15.2407 463.798C15.2721 465.478 15.8681 467.109 16.9664 468.44C18.141 469.862 19.7638 470.786 21.5448 471.075C22.3291 473.355 23.8629 475.269 25.9548 476.543C28.4031 478.037 31.2778 478.449 34.0485 477.707C37.0586 476.9 39.5029 474.792 40.7822 472.046C43.2622 473.785 46.4331 474.389 49.4441 473.582C52.2148 472.839 54.4979 471.044 55.8718 468.527C57.0459 466.377 57.4184 463.953 56.9575 461.586C58.3543 460.445 59.298 458.834 59.6042 457.015C59.8901 455.314 59.5906 453.604 58.7779 452.133C61.5814 449.272 62.7023 445.128 61.6443 441.18Z" fill="#A3EFD7"/>
<path d="M37.4744 459.702C31.2778 461.363 24.8855 457.672 23.2251 451.476C21.5647 445.279 25.2551 438.886 31.4517 437.225C37.6482 435.565 44.0405 439.256 45.7009 445.452C47.3612 451.649 43.6719 458.042 37.4744 459.702Z" fill="#1AD99B"/>
<path d="M38.6021 445.648L35.6298 446.444L34.8331 443.471C34.5973 442.591 33.6942 442.07 32.8141 442.306C31.9342 442.541 31.4127 443.445 31.6485 444.325L32.4452 447.298L29.4719 448.094C28.5919 448.33 28.0705 449.233 28.3063 450.113C28.542 450.993 29.4452 451.515 30.3252 451.279L33.2985 450.482L34.0952 453.456C34.3309 454.336 35.2342 454.857 36.1141 454.621C36.9941 454.385 37.5156 453.482 37.2798 452.602L36.4834 449.63L39.4566 448.833C40.3366 448.598 40.8581 447.694 40.6223 446.814C40.3865 445.934 39.482 445.412 38.6021 445.648Z" fill="#A3EFD7"/>
</g>
<defs>
<filter id="filter0_f" x="63.8047" y="1.82642" width="44.5712" height="54.8178" filterUnits="userSpaceOnUse" color-interpolation-filters="sRGB">
<feFlood flood-opacity="0" result="BackgroundImageFix"/>
<feBlend mode="normal" in="SourceGraphic" in2="BackgroundImageFix" result="shape"/>
<feGaussianBlur stdDeviation="1" result="effect1_foregroundBlur"/>
</filter>
<filter id="filter1_f" x="5.89038" y="417.86" width="57.1466" height="61.2075" filterUnits="userSpaceOnUse" color-interpolation-filters="sRGB">
<feFlood flood-opacity="0" result="BackgroundImageFix"/>
<feBlend mode="normal" in="SourceGraphic" in2="BackgroundImageFix" result="shape"/>
<feGaussianBlur stdDeviation="0.5" result="effect1_foregroundBlur"/>
</filter>
</defs>
</svg>
