<svg width="84" height="84" viewBox="0 0 84 84" fill="none" xmlns="http://www.w3.org/2000/svg">
<path d="M74.6666 41.9999C74.6666 46.2898 73.8217 50.5376 72.18 54.5009C70.5384 58.4642 68.1322 62.0654 65.0988 65.0987C62.0654 68.1321 58.4643 70.5383 54.501 72.18C50.5377 73.8216 46.2898 74.6666 42 74.6666C37.7101 74.6666 33.4623 73.8216 29.499 72.18C25.5357 70.5383 21.9345 68.1321 18.9012 65.0987C15.8678 62.0654 13.4616 58.4642 11.8199 54.5009C10.1783 50.5376 9.33331 46.2898 9.33331 41.9999C9.33331 37.7101 10.1783 33.4622 11.8199 29.4989C13.4616 25.5356 15.8678 21.9345 18.9012 18.9011C21.9345 15.8677 25.5357 13.4615 29.499 11.8199C33.4623 10.1782 37.7101 9.33325 42 9.33325C46.2898 9.33325 50.5377 10.1782 54.501 11.8199C58.4643 13.4615 62.0654 15.8677 65.0988 18.9011C68.1322 21.9345 70.5384 25.5356 72.18 29.4989C73.8217 33.4622 74.6666 37.7101 74.6666 41.9999L74.6666 41.9999Z" stroke="#D8D8D8" stroke-width="6"/>
<path d="M31.932 10.0681C38.4453 8.01446 45.4308 8.00171 51.9515 10.0316C58.4723 12.0614 64.2164 16.0368 68.4133 21.4244C72.6102 26.812 75.0592 33.3543 75.4317 40.1735C75.8043 46.9927 74.0826 53.7628 70.4976 59.5755" stroke="#18E176" stroke-width="6" stroke-linecap="round"/>
</svg>
