<svg width="176" height="25" viewBox="0 0 176 25" fill="none" xmlns="http://www.w3.org/2000/svg">
<path fill-rule="evenodd" clip-rule="evenodd" d="M17.1999 19.4372C18.1941 19.4372 19 20.2348 19 21.2186C19 22.2024 18.1941 23 17.1999 23C16.2057 23 15.3997 22.2024 15.3997 21.2186C15.3997 20.2348 16.2057 19.4372 17.1999 19.4372ZM17.1999 20.4505C16.8875 20.4501 16.6056 20.636 16.4858 20.9216C16.3661 21.2071 16.4321 21.536 16.653 21.7546C16.8739 21.9732 17.2062 22.0385 17.4947 21.92C17.7833 21.8015 17.9712 21.5225 17.9708 21.2134C17.9713 21.0109 17.8903 20.8165 17.7456 20.6733C17.6009 20.5301 17.4045 20.4499 17.1999 20.4505ZM1.66795 13.1153C2.65838 13.0432 3.52075 13.7784 3.59518 14.7584C3.66962 15.7384 2.92798 16.5929 1.93778 16.6681C0.947575 16.7432 0.0829316 16.0106 0.00547564 15.0308C-0.0318572 14.5581 0.122829 14.0901 0.435272 13.7305C0.747715 13.371 1.19212 13.1496 1.67006 13.1153H1.66795ZM1.80137 14.1286C1.48896 14.1282 1.20709 14.3142 1.08734 14.5997C0.967583 14.8853 1.03356 15.2141 1.25447 15.4327C1.47538 15.6513 1.80766 15.7166 2.09621 15.5981C2.38475 15.4796 2.57267 15.2006 2.57225 14.8915C2.57281 14.6893 2.49206 14.4953 2.34783 14.3522C2.2036 14.2091 2.00774 14.1286 1.80349 14.1286H1.80137ZM13.5996 0C14.5938 0 15.3997 0.797561 15.3997 1.7814C15.3997 2.76524 14.5938 3.5628 13.5996 3.5628C12.6054 3.5628 11.7995 2.76524 11.7995 1.7814C11.7995 0.797561 12.6054 0 13.5996 0ZM13.5996 1.01959C13.1733 1.01959 12.8277 1.3616 12.8277 1.7835C12.8277 2.20539 13.1733 2.54741 13.5996 2.54741C14.0259 2.54741 14.3716 2.20539 14.3716 1.7835C14.3724 1.58064 14.2913 1.38585 14.1464 1.24241C14.0014 1.09896 13.8046 1.01875 13.5996 1.01959Z" fill="#13BE8F"/>
<path fill-rule="evenodd" clip-rule="evenodd" d="M2.11217 19.8273C4.28689 22.4197 7.70228 24 11.498 24C12.198 24.0006 12.8967 23.9417 13.586 23.8242C13.8625 23.7661 14.0418 23.5071 13.9916 23.2381C13.9414 22.9692 13.6797 22.7869 13.3997 22.8257C12.7736 22.9351 12.1385 22.989 11.5023 22.9869C8.02952 22.9869 4.91535 21.5458 2.9346 19.1889C2.75237 18.9707 2.42151 18.9365 2.1956 19.1125C1.96969 19.2885 1.93428 19.6081 2.1165 19.8263L2.11217 19.8273Z" fill="#13BE8F"/>
<path fill-rule="evenodd" clip-rule="evenodd" d="M9.37575 1.0121C4.41564 1.92389 0.637009 5.72692 0.00394816 10.4444C-0.0190139 10.62 0.0593134 10.7937 0.209425 10.9002C0.359537 11.0067 0.558627 11.0298 0.731701 10.9607C0.904775 10.8916 1.02554 10.7409 1.0485 10.5654C1.6218 6.27077 5.0605 2.80759 9.57559 1.97759C9.75948 1.94401 9.91035 1.82067 9.97138 1.65404C10.0324 1.48742 9.99432 1.30281 9.87146 1.16977C9.7486 1.03673 9.55964 0.975466 9.37575 1.00905V1.0121Z" fill="#13BE8F"/>
<path fill-rule="evenodd" clip-rule="evenodd" d="M19.8444 4.02594C19.2188 3.28758 18.5177 2.63623 17.7561 2.08564C17.5252 1.92147 17.2205 2.0004 17.0756 2.26193C16.9307 2.52346 17.0003 2.86857 17.2312 3.03275C17.9259 3.53226 18.5637 4.12664 19.1303 4.80251C19.2488 4.96087 19.4351 5.03176 19.614 4.9866C19.7929 4.94144 19.9349 4.78767 19.9828 4.5873C20.0307 4.38692 19.9767 4.17297 19.8424 4.0317L19.8444 4.02594Z" fill="#13BE8F"/>
<path fill-rule="evenodd" clip-rule="evenodd" d="M20.0143 19.7983C23.5621 15.9675 23.9897 10.5006 21.0739 6.25357C20.968 6.09174 20.7737 5.99475 20.5663 6.00022C20.359 6.00569 20.1712 6.11276 20.0759 6.2799C19.9805 6.44704 19.9926 6.64796 20.1073 6.80471C22.761 10.6721 22.3744 15.6489 19.149 19.1404C19.0082 19.2794 18.963 19.4773 19.0313 19.6556C19.0996 19.8339 19.2704 19.9637 19.4758 19.9935C19.6812 20.0234 19.8881 19.9484 20.0143 19.7983Z" fill="#13BE8F"/>
<path fill-rule="evenodd" clip-rule="evenodd" d="M11.1825 18.9986C10.361 18.9938 9.54599 18.8494 8.77109 18.5714C8.43103 18.4435 8.10496 18.28 7.79815 18.0833C7.17154 17.7019 6.96653 16.8756 7.33998 16.2367C7.37458 16.1801 7.41652 16.1235 7.45846 16.0679C7.96137 15.4523 8.81925 15.2807 9.51337 15.6567C9.62451 15.7133 9.72306 15.7635 9.81218 15.8052C10.2678 16.0183 10.7619 16.1325 11.2632 16.1405C11.756 16.1405 12.1103 16.0636 12.3326 15.9077C12.55 15.7638 12.6768 15.5137 12.666 15.2498C12.673 15.1131 12.6338 14.9782 12.5549 14.8674C12.4628 14.7503 12.3496 14.6521 12.2215 14.578C12.0541 14.4763 11.8787 14.3887 11.6973 14.3163C11.496 14.2309 11.2601 14.139 10.9969 14.0333L9.46934 13.3754C9.13618 13.2441 8.81944 13.0731 8.52576 12.8659C8.22647 12.6587 7.95961 12.4067 7.73419 12.1183C7.24891 11.4846 6.99005 10.7014 7.00029 9.89781C6.9957 9.37309 7.11243 8.85463 7.34103 8.38439C7.57138 7.91395 7.89228 7.49552 8.28462 7.154C8.71234 6.7866 9.20181 6.50111 9.72935 6.31132C10.3196 6.09693 10.9427 5.99167 11.5693 6.00051C12.302 6.00641 13.028 6.14305 13.7144 6.40424C13.9999 6.51574 14.2724 6.65901 14.527 6.83145C15.112 7.21534 15.2826 8.00869 14.9086 8.60655C14.8855 8.6439 14.8599 8.67958 14.8321 8.71335C14.3919 9.27951 13.6265 9.46148 12.9858 9.15232L12.8254 9.08076C12.4243 8.92239 11.9973 8.84336 11.5672 8.84793C11.1646 8.84793 10.8522 8.91842 10.6237 9.06153C10.4002 9.19209 10.2685 9.44037 10.284 9.70236C10.284 9.99928 10.4433 10.2257 10.7621 10.388C11.1964 10.6007 11.6416 10.7897 12.0957 10.9541L13.5886 11.5479C14.3592 11.8587 14.9516 12.2838 15.3709 12.8424C15.7903 13.401 16 14.1081 16 14.9785C15.9965 15.5018 15.8828 16.0183 15.6666 16.493C15.449 16.9844 15.1292 17.4217 14.7293 17.7747C14.288 18.1602 13.7794 18.4577 13.2301 18.6515C12.5748 18.8965 11.8803 19.0142 11.1825 18.9986Z" fill="#13BE8F"/>
<path d="M34.76 18.162C33.836 18.162 32.96 18.042 32.132 17.802C31.316 17.55 30.65 17.214 30.134 16.794C29.858 16.59 29.72 16.302 29.72 15.93C29.72 15.678 29.792 15.462 29.936 15.282C30.092 15.09 30.272 14.994 30.476 14.994C30.692 14.994 30.938 15.078 31.214 15.246C31.73 15.618 32.27 15.888 32.834 16.056C33.398 16.224 34.022 16.308 34.706 16.308C35.582 16.308 36.254 16.158 36.722 15.858C37.19 15.546 37.424 15.096 37.424 14.508C37.424 14.052 37.202 13.704 36.758 13.464C36.326 13.212 35.6 12.972 34.58 12.744C33.524 12.516 32.666 12.252 32.006 11.952C31.346 11.652 30.848 11.268 30.512 10.8C30.176 10.332 30.008 9.738 30.008 9.018C30.008 8.274 30.218 7.608 30.638 7.02C31.058 6.432 31.64 5.976 32.384 5.652C33.14 5.316 33.986 5.148 34.922 5.148C36.638 5.148 38.036 5.604 39.116 6.516C39.272 6.648 39.38 6.78 39.44 6.912C39.512 7.032 39.548 7.188 39.548 7.38C39.548 7.632 39.47 7.854 39.314 8.046C39.17 8.226 38.996 8.316 38.792 8.316C38.672 8.316 38.558 8.298 38.45 8.262C38.354 8.226 38.222 8.16 38.054 8.064C37.562 7.704 37.082 7.44 36.614 7.272C36.158 7.092 35.594 7.002 34.922 7.002C34.106 7.002 33.458 7.17 32.978 7.506C32.51 7.83 32.276 8.286 32.276 8.874C32.276 9.366 32.486 9.744 32.906 10.008C33.326 10.272 34.04 10.518 35.048 10.746C36.116 10.986 36.98 11.256 37.64 11.556C38.312 11.844 38.822 12.216 39.17 12.672C39.53 13.128 39.71 13.698 39.71 14.382C39.71 15.126 39.5 15.786 39.08 16.362C38.672 16.926 38.09 17.37 37.334 17.694C36.59 18.006 35.732 18.162 34.76 18.162ZM44.992 18.144C44.116 18.144 43.342 17.958 42.67 17.586C42.01 17.214 41.5 16.686 41.14 16.002C40.78 15.318 40.6 14.52 40.6 13.608C40.6 12.696 40.786 11.892 41.158 11.196C41.542 10.488 42.076 9.942 42.76 9.558C43.444 9.174 44.23 8.982 45.118 8.982C45.586 8.982 46.054 9.048 46.522 9.18C47.002 9.312 47.422 9.492 47.782 9.72C48.166 9.972 48.358 10.29 48.358 10.674C48.358 10.938 48.292 11.154 48.16 11.322C48.04 11.478 47.878 11.556 47.674 11.556C47.542 11.556 47.404 11.526 47.26 11.466C47.116 11.406 46.972 11.334 46.828 11.25C46.564 11.094 46.312 10.974 46.072 10.89C45.832 10.794 45.556 10.746 45.244 10.746C44.5 10.746 43.924 10.992 43.516 11.484C43.12 11.964 42.922 12.66 42.922 13.572C42.922 14.472 43.12 15.168 43.516 15.66C43.924 16.14 44.5 16.38 45.244 16.38C45.544 16.38 45.808 16.338 46.036 16.254C46.276 16.158 46.54 16.032 46.828 15.876C47.008 15.768 47.164 15.69 47.296 15.642C47.428 15.582 47.56 15.552 47.692 15.552C47.884 15.552 48.046 15.636 48.178 15.804C48.31 15.972 48.376 16.182 48.376 16.434C48.376 16.638 48.328 16.818 48.232 16.974C48.148 17.118 48.004 17.25 47.8 17.37C47.428 17.61 46.996 17.802 46.504 17.946C46.012 18.078 45.508 18.144 44.992 18.144ZM53.1286 8.982C54.3526 8.982 55.2586 9.288 55.8466 9.9C56.4466 10.5 56.7466 11.418 56.7466 12.654V17.046C56.7466 17.37 56.6506 17.628 56.4586 17.82C56.2666 18 56.0026 18.09 55.6666 18.09C55.3546 18.09 55.0966 17.994 54.8926 17.802C54.7006 17.61 54.6046 17.358 54.6046 17.046V16.65C54.4006 17.118 54.0766 17.484 53.6326 17.748C53.2006 18.012 52.6966 18.144 52.1206 18.144C51.5326 18.144 50.9986 18.024 50.5186 17.784C50.0386 17.544 49.6606 17.214 49.3846 16.794C49.1086 16.374 48.9706 15.906 48.9706 15.39C48.9706 14.742 49.1326 14.232 49.4566 13.86C49.7926 13.488 50.3326 13.218 51.0766 13.05C51.8206 12.882 52.8466 12.798 54.1546 12.798H54.6046V12.384C54.6046 11.796 54.4786 11.37 54.2266 11.106C53.9746 10.83 53.5666 10.692 53.0026 10.692C52.6546 10.692 52.3006 10.746 51.9406 10.854C51.5806 10.95 51.1546 11.094 50.6626 11.286C50.3506 11.442 50.1226 11.52 49.9786 11.52C49.7626 11.52 49.5826 11.442 49.4386 11.286C49.3066 11.13 49.2406 10.926 49.2406 10.674C49.2406 10.47 49.2886 10.296 49.3846 10.152C49.4926 9.996 49.6666 9.852 49.9066 9.72C50.3266 9.492 50.8246 9.312 51.4006 9.18C51.9886 9.048 52.5646 8.982 53.1286 8.982ZM52.5706 16.524C53.1706 16.524 53.6566 16.326 54.0286 15.93C54.4126 15.522 54.6046 15 54.6046 14.364V13.986H54.2806C53.4766 13.986 52.8526 14.022 52.4086 14.094C51.9646 14.166 51.6466 14.292 51.4546 14.472C51.2626 14.652 51.1666 14.898 51.1666 15.21C51.1666 15.594 51.2986 15.912 51.5626 16.164C51.8386 16.404 52.1746 16.524 52.5706 16.524ZM59.5868 18.108C59.2628 18.108 58.9928 18.018 58.7768 17.838C58.5728 17.646 58.4708 17.376 58.4708 17.028V6.282C58.4708 5.934 58.5728 5.67 58.7768 5.49C58.9928 5.31 59.2628 5.22 59.5868 5.22C59.9108 5.22 60.1808 5.31 60.3968 5.49C60.6128 5.67 60.7208 5.934 60.7208 6.282V17.028C60.7208 17.376 60.6128 17.646 60.3968 17.838C60.1808 18.018 59.9108 18.108 59.5868 18.108ZM68.1528 18.108C67.8048 18.108 67.5228 18.006 67.3068 17.802C67.1028 17.586 67.0008 17.298 67.0008 16.938V6.408C67.0008 6.06 67.0968 5.79 67.2888 5.598C67.4928 5.406 67.7688 5.31 68.1168 5.31H72.5448C73.9008 5.31 74.9568 5.652 75.7128 6.336C76.4688 7.008 76.8468 7.956 76.8468 9.18C76.8468 10.404 76.4688 11.358 75.7128 12.042C74.9568 12.726 73.9008 13.068 72.5448 13.068H69.3228V16.938C69.3228 17.298 69.2148 17.586 68.9988 17.802C68.7948 18.006 68.5128 18.108 68.1528 18.108ZM72.2568 11.286C73.8528 11.286 74.6508 10.59 74.6508 9.198C74.6508 7.806 73.8528 7.11 72.2568 7.11H69.3228V11.286H72.2568ZM82.8613 9.018C83.1733 8.994 83.4193 9.06 83.5993 9.216C83.7793 9.372 83.8693 9.606 83.8693 9.918C83.8693 10.242 83.7913 10.482 83.6353 10.638C83.4793 10.794 83.1973 10.896 82.7893 10.944L82.2493 10.998C81.5413 11.07 81.0193 11.31 80.6833 11.718C80.3593 12.126 80.1973 12.636 80.1973 13.248V17.028C80.1973 17.376 80.0893 17.646 79.8733 17.838C79.6573 18.018 79.3873 18.108 79.0633 18.108C78.7393 18.108 78.4693 18.018 78.2533 17.838C78.0493 17.646 77.9473 17.376 77.9473 17.028V10.062C77.9473 9.726 78.0493 9.468 78.2533 9.288C78.4693 9.108 78.7333 9.018 79.0453 9.018C79.3573 9.018 79.6093 9.108 79.8013 9.288C79.9933 9.456 80.0893 9.702 80.0893 10.026V10.746C80.3173 10.218 80.6533 9.81 81.0973 9.522C81.5533 9.234 82.0573 9.072 82.6093 9.036L82.8613 9.018ZM88.1137 18.144C87.2137 18.144 86.4217 17.958 85.7377 17.586C85.0657 17.214 84.5437 16.68 84.1717 15.984C83.7997 15.288 83.6137 14.478 83.6137 13.554C83.6137 12.63 83.7997 11.826 84.1717 11.142C84.5437 10.446 85.0657 9.912 85.7377 9.54C86.4217 9.168 87.2137 8.982 88.1137 8.982C89.0137 8.982 89.7997 9.168 90.4717 9.54C91.1557 9.912 91.6777 10.446 92.0377 11.142C92.4097 11.826 92.5957 12.63 92.5957 13.554C92.5957 14.478 92.4097 15.288 92.0377 15.984C91.6777 16.68 91.1557 17.214 90.4717 17.586C89.7997 17.958 89.0137 18.144 88.1137 18.144ZM88.0957 16.398C88.8277 16.398 89.3857 16.158 89.7697 15.678C90.1537 15.198 90.3457 14.49 90.3457 13.554C90.3457 12.63 90.1537 11.928 89.7697 11.448C89.3857 10.956 88.8337 10.71 88.1137 10.71C87.3937 10.71 86.8357 10.956 86.4397 11.448C86.0557 11.928 85.8637 12.63 85.8637 13.554C85.8637 14.49 86.0557 15.198 86.4397 15.678C86.8237 16.158 87.3757 16.398 88.0957 16.398ZM101.398 7.416C100.99 7.416 100.666 7.308 100.426 7.092C100.186 6.864 100.066 6.57 100.066 6.21C100.066 5.85 100.186 5.562 100.426 5.346C100.666 5.13 100.99 5.022 101.398 5.022C101.794 5.022 102.112 5.13 102.352 5.346C102.604 5.562 102.73 5.85 102.73 6.21C102.73 6.57 102.604 6.864 102.352 7.092C102.112 7.308 101.794 7.416 101.398 7.416ZM101.506 9.198C102.178 9.198 102.514 9.48 102.514 10.044V17.028C102.514 17.376 102.406 17.646 102.19 17.838C101.986 18.018 101.722 18.108 101.398 18.108C101.074 18.108 100.804 18.018 100.588 17.838C100.372 17.646 100.264 17.376 100.264 17.028V10.89H96.7V17.028C96.7 17.376 96.592 17.64 96.376 17.82C96.172 18 95.908 18.09 95.584 18.09C95.26 18.09 94.99 18 94.774 17.82C94.558 17.64 94.45 17.376 94.45 17.028V10.89H93.55C92.878 10.89 92.542 10.608 92.542 10.044C92.542 9.48 92.878 9.198 93.55 9.198H94.45V9.108C94.45 7.992 94.744 7.11 95.332 6.462C95.932 5.802 96.772 5.424 97.852 5.328L98.266 5.292C98.326 5.28 98.416 5.274 98.536 5.274C99.172 5.274 99.49 5.544 99.49 6.084C99.49 6.348 99.418 6.552 99.274 6.696C99.13 6.84 98.932 6.924 98.68 6.948L98.284 6.984C97.732 7.032 97.33 7.206 97.078 7.506C96.826 7.794 96.7 8.22 96.7 8.784V9.198H101.506ZM107.483 18.144C106.175 18.144 105.119 17.886 104.315 17.37C103.931 17.142 103.739 16.818 103.739 16.398C103.739 16.158 103.805 15.966 103.937 15.822C104.069 15.666 104.231 15.588 104.423 15.588C104.627 15.588 104.909 15.684 105.269 15.876C105.653 16.056 106.001 16.194 106.313 16.29C106.637 16.386 107.045 16.434 107.537 16.434C108.041 16.434 108.431 16.35 108.707 16.182C108.995 16.014 109.139 15.78 109.139 15.48C109.139 15.276 109.079 15.114 108.959 14.994C108.851 14.874 108.647 14.766 108.347 14.67C108.059 14.562 107.615 14.442 107.015 14.31C105.947 14.094 105.179 13.788 104.711 13.392C104.255 12.996 104.027 12.45 104.027 11.754C104.027 11.226 104.183 10.752 104.495 10.332C104.807 9.9 105.233 9.57 105.773 9.342C106.325 9.102 106.949 8.982 107.645 8.982C108.149 8.982 108.635 9.048 109.103 9.18C109.571 9.3 109.991 9.48 110.363 9.72C110.747 9.96 110.939 10.278 110.939 10.674C110.939 10.914 110.873 11.118 110.741 11.286C110.609 11.442 110.447 11.52 110.255 11.52C110.123 11.52 109.991 11.496 109.859 11.448C109.739 11.388 109.583 11.304 109.391 11.196C109.043 11.016 108.743 10.884 108.491 10.8C108.239 10.704 107.927 10.656 107.555 10.656C107.111 10.656 106.757 10.746 106.493 10.926C106.241 11.106 106.115 11.352 106.115 11.664C106.115 11.964 106.247 12.192 106.511 12.348C106.775 12.504 107.285 12.66 108.041 12.816C108.845 12.984 109.475 13.176 109.931 13.392C110.387 13.608 110.711 13.878 110.903 14.202C111.107 14.526 111.209 14.94 111.209 15.444C111.209 16.26 110.867 16.914 110.183 17.406C109.511 17.898 108.611 18.144 107.483 18.144ZM115.657 18.144C114.349 18.144 113.293 17.886 112.489 17.37C112.105 17.142 111.913 16.818 111.913 16.398C111.913 16.158 111.979 15.966 112.111 15.822C112.243 15.666 112.405 15.588 112.597 15.588C112.801 15.588 113.083 15.684 113.443 15.876C113.827 16.056 114.175 16.194 114.487 16.29C114.811 16.386 115.219 16.434 115.711 16.434C116.215 16.434 116.605 16.35 116.881 16.182C117.169 16.014 117.313 15.78 117.313 15.48C117.313 15.276 117.253 15.114 117.133 14.994C117.025 14.874 116.821 14.766 116.521 14.67C116.233 14.562 115.789 14.442 115.189 14.31C114.121 14.094 113.353 13.788 112.885 13.392C112.429 12.996 112.201 12.45 112.201 11.754C112.201 11.226 112.357 10.752 112.669 10.332C112.981 9.9 113.407 9.57 113.947 9.342C114.499 9.102 115.123 8.982 115.819 8.982C116.323 8.982 116.809 9.048 117.277 9.18C117.745 9.3 118.165 9.48 118.537 9.72C118.921 9.96 119.113 10.278 119.113 10.674C119.113 10.914 119.047 11.118 118.915 11.286C118.783 11.442 118.621 11.52 118.429 11.52C118.297 11.52 118.165 11.496 118.033 11.448C117.913 11.388 117.757 11.304 117.565 11.196C117.217 11.016 116.917 10.884 116.665 10.8C116.413 10.704 116.101 10.656 115.729 10.656C115.285 10.656 114.931 10.746 114.667 10.926C114.415 11.106 114.289 11.352 114.289 11.664C114.289 11.964 114.421 12.192 114.685 12.348C114.949 12.504 115.459 12.66 116.215 12.816C117.019 12.984 117.649 13.176 118.105 13.392C118.561 13.608 118.885 13.878 119.077 14.202C119.281 14.526 119.383 14.94 119.383 15.444C119.383 16.26 119.041 16.914 118.357 17.406C117.685 17.898 116.785 18.144 115.657 18.144ZM121.761 18.108C121.437 18.108 121.167 18.018 120.951 17.838C120.747 17.646 120.645 17.376 120.645 17.028V10.08C120.645 9.732 120.747 9.468 120.951 9.288C121.167 9.108 121.437 9.018 121.761 9.018C122.085 9.018 122.355 9.108 122.571 9.288C122.787 9.468 122.895 9.732 122.895 10.08V17.028C122.895 17.376 122.787 17.646 122.571 17.838C122.355 18.018 122.085 18.108 121.761 18.108ZM121.761 7.416C121.353 7.416 121.029 7.308 120.789 7.092C120.549 6.864 120.429 6.57 120.429 6.21C120.429 5.85 120.549 5.562 120.789 5.346C121.029 5.13 121.353 5.022 121.761 5.022C122.157 5.022 122.475 5.13 122.715 5.346C122.967 5.562 123.093 5.85 123.093 6.21C123.093 6.57 122.973 6.864 122.733 7.092C122.493 7.308 122.169 7.416 121.761 7.416ZM128.666 18.144C127.766 18.144 126.974 17.958 126.29 17.586C125.618 17.214 125.096 16.68 124.724 15.984C124.352 15.288 124.166 14.478 124.166 13.554C124.166 12.63 124.352 11.826 124.724 11.142C125.096 10.446 125.618 9.912 126.29 9.54C126.974 9.168 127.766 8.982 128.666 8.982C129.566 8.982 130.352 9.168 131.024 9.54C131.708 9.912 132.23 10.446 132.59 11.142C132.962 11.826 133.148 12.63 133.148 13.554C133.148 14.478 132.962 15.288 132.59 15.984C132.23 16.68 131.708 17.214 131.024 17.586C130.352 17.958 129.566 18.144 128.666 18.144ZM128.648 16.398C129.38 16.398 129.938 16.158 130.322 15.678C130.706 15.198 130.898 14.49 130.898 13.554C130.898 12.63 130.706 11.928 130.322 11.448C129.938 10.956 129.386 10.71 128.666 10.71C127.946 10.71 127.388 10.956 126.992 11.448C126.608 11.928 126.416 12.63 126.416 13.554C126.416 14.49 126.608 15.198 126.992 15.678C127.376 16.158 127.928 16.398 128.648 16.398ZM139.555 8.982C140.611 8.982 141.397 9.282 141.913 9.882C142.429 10.482 142.687 11.388 142.687 12.6V17.028C142.687 17.364 142.585 17.628 142.381 17.82C142.189 18.012 141.919 18.108 141.571 18.108C141.223 18.108 140.947 18.012 140.743 17.82C140.539 17.628 140.437 17.364 140.437 17.028V12.726C140.437 12.042 140.305 11.544 140.041 11.232C139.789 10.92 139.387 10.764 138.835 10.764C138.187 10.764 137.665 10.968 137.269 11.376C136.885 11.784 136.693 12.33 136.693 13.014V17.028C136.693 17.364 136.591 17.628 136.387 17.82C136.183 18.012 135.907 18.108 135.559 18.108C135.211 18.108 134.935 18.012 134.731 17.82C134.539 17.628 134.443 17.364 134.443 17.028V10.062C134.443 9.75 134.545 9.498 134.749 9.306C134.953 9.114 135.229 9.018 135.577 9.018C135.889 9.018 136.141 9.114 136.333 9.306C136.537 9.486 136.639 9.726 136.639 10.026V10.512C136.939 10.02 137.341 9.642 137.845 9.378C138.349 9.114 138.919 8.982 139.555 8.982ZM148.226 8.982C149.45 8.982 150.356 9.288 150.944 9.9C151.544 10.5 151.844 11.418 151.844 12.654V17.046C151.844 17.37 151.748 17.628 151.556 17.82C151.364 18 151.1 18.09 150.764 18.09C150.452 18.09 150.194 17.994 149.99 17.802C149.798 17.61 149.702 17.358 149.702 17.046V16.65C149.498 17.118 149.174 17.484 148.73 17.748C148.298 18.012 147.794 18.144 147.218 18.144C146.63 18.144 146.096 18.024 145.616 17.784C145.136 17.544 144.758 17.214 144.482 16.794C144.206 16.374 144.068 15.906 144.068 15.39C144.068 14.742 144.23 14.232 144.554 13.86C144.89 13.488 145.43 13.218 146.174 13.05C146.918 12.882 147.944 12.798 149.252 12.798H149.702V12.384C149.702 11.796 149.576 11.37 149.324 11.106C149.072 10.83 148.664 10.692 148.1 10.692C147.752 10.692 147.398 10.746 147.038 10.854C146.678 10.95 146.252 11.094 145.76 11.286C145.448 11.442 145.22 11.52 145.076 11.52C144.86 11.52 144.68 11.442 144.536 11.286C144.404 11.13 144.338 10.926 144.338 10.674C144.338 10.47 144.386 10.296 144.482 10.152C144.59 9.996 144.764 9.852 145.004 9.72C145.424 9.492 145.922 9.312 146.498 9.18C147.086 9.048 147.662 8.982 148.226 8.982ZM147.668 16.524C148.268 16.524 148.754 16.326 149.126 15.93C149.51 15.522 149.702 15 149.702 14.364V13.986H149.378C148.574 13.986 147.95 14.022 147.506 14.094C147.062 14.166 146.744 14.292 146.552 14.472C146.36 14.652 146.264 14.898 146.264 15.21C146.264 15.594 146.396 15.912 146.66 16.164C146.936 16.404 147.272 16.524 147.668 16.524ZM154.684 18.108C154.36 18.108 154.09 18.018 153.874 17.838C153.67 17.646 153.568 17.376 153.568 17.028V6.282C153.568 5.934 153.67 5.67 153.874 5.49C154.09 5.31 154.36 5.22 154.684 5.22C155.008 5.22 155.278 5.31 155.494 5.49C155.71 5.67 155.818 5.934 155.818 6.282V17.028C155.818 17.376 155.71 17.646 155.494 17.838C155.278 18.018 155.008 18.108 154.684 18.108Z" fill="#8B8FA1"/>
</svg>
