<svg width="271" height="31" viewBox="0 0 271 31" fill="none" xmlns="http://www.w3.org/2000/svg">
<path d="M70.0459 17.7112H66.8611L65.8174 23.6221H61L64.3989 4.18893H72.5617C74.5778 4.18893 76.0141 4.65677 76.8705 5.59244C77.495 6.31219 77.8072 7.22987 77.8072 8.34548C77.8072 8.72335 77.7716 9.11921 77.7002 9.53306L77.1649 12.583C76.8973 14.0765 76.1122 15.309 74.8098 16.2807C73.5073 17.2344 71.9194 17.7112 70.0459 17.7112ZM70.8756 8.39946H68.4669L67.5837 13.5007H69.9656C71.4287 13.5007 72.2762 12.8439 72.5081 11.5304L72.6955 10.4238C72.7312 10.2618 72.749 10.0459 72.749 9.77598C72.749 9.50607 72.6152 9.20918 72.3476 8.88529C72.0799 8.5614 71.5893 8.39946 70.8756 8.39946Z" fill="#1AD99B"/>
<path d="M88.3542 4.18893C90.3882 4.18893 91.8334 4.63878 92.6899 5.53846C93.3322 6.22222 93.6533 7.08592 93.6533 8.12956C93.6533 8.48943 93.6177 8.8673 93.5463 9.26316L93.1716 11.3684C92.9575 12.538 92.5828 13.4827 92.0476 14.2024C91.5301 14.9222 90.9503 15.435 90.3079 15.7409L92.7434 23.6221H87.3372L85.0891 16.3617H83.4298L82.3325 23.6221H77.194L80.5929 4.18893H88.3542ZM86.6682 8.39946H84.6609L83.9651 13.0958H85.8385C86.7841 13.0958 87.4621 12.8709 87.8725 12.4211C88.2829 11.9532 88.4881 11.3414 88.4881 10.5857C88.4881 9.12821 87.8814 8.39946 86.6682 8.39946Z" fill="#1AD99B"/>
<path d="M104.165 4C108.465 4 110.615 5.77238 110.615 9.31714C110.615 9.91093 110.552 10.5497 110.427 11.2335L109.491 16.6316C109.062 19.1327 108.135 20.9861 106.707 22.1916C105.28 23.3972 103.273 24 100.686 24C98.0985 24 96.2964 23.3972 95.2794 22.1916C94.5836 21.3639 94.2357 20.2213 94.2357 18.7638C94.2357 18.1161 94.307 17.4053 94.4498 16.6316L95.3865 11.2335C96.2251 6.41116 99.1512 4 104.165 4ZM101.408 19.8165C102.3 19.8165 103.014 19.5825 103.549 19.1147C104.084 18.6469 104.459 17.7832 104.673 16.5236L105.583 11.3414C105.637 10.9816 105.664 10.6577 105.664 10.3698C105.664 8.91228 104.932 8.18354 103.469 8.18354C101.631 8.21952 100.534 9.27215 100.177 11.3414L99.2671 16.5236C99.1958 16.9735 99.1601 17.4413 99.1601 17.9271C99.1601 19.1867 99.9094 19.8165 101.408 19.8165Z" fill="#1AD99B"/>
<path d="M128.906 4.18893L125.534 23.6221H120.69L117.318 12.9879L115.498 23.6221H110.654L114.053 4.18893H119.03L122.349 14.1215L124.089 4.18893H128.906Z" fill="#1AD99B"/>
<path d="M147.524 8.39946H140.94L138.291 23.6221H133.447L136.096 8.39946H129.486L130.235 4.18893H148.273L147.524 8.39946Z" fill="#1AD99B"/>
<path d="M156.615 4C160.915 4 163.065 5.77238 163.065 9.31714C163.065 9.91093 163.002 10.5497 162.878 11.2335L161.941 16.6316C161.513 19.1327 160.585 20.9861 159.157 22.1916C157.73 23.3972 155.723 24 153.136 24C150.549 24 148.747 23.3972 147.73 22.1916C147.034 21.3639 146.686 20.2213 146.686 18.7638C146.686 18.1161 146.757 17.4053 146.9 16.6316L147.837 11.2335C148.675 6.41116 151.601 4 156.615 4ZM153.858 19.8165C154.75 19.8165 155.464 19.5825 155.999 19.1147C156.535 18.6469 156.909 17.7832 157.123 16.5236L158.033 11.3414C158.087 10.9816 158.114 10.6577 158.114 10.3698C158.114 8.91228 157.382 8.18354 155.919 8.18354C154.081 8.21952 152.984 9.27215 152.627 11.3414L151.717 16.5236C151.646 16.9735 151.61 17.4413 151.61 17.9271C151.61 19.1867 152.36 19.8165 153.858 19.8165Z" fill="#1AD99B"/>
<path d="M172.422 23.6221L172.583 19.3846H168.113L166.802 23.6221H161.69L168.568 4.18893H177.4L177.507 23.6221H172.422ZM171.325 8.91228L169.211 15.7679H172.717L173.011 8.91228H171.325Z" fill="#1AD99B"/>
<path d="M185.885 24C183.351 24 181.603 23.4062 180.639 22.2186C179.979 21.3909 179.649 20.2573 179.649 18.8178C179.649 18.152 179.72 17.4233 179.863 16.6316L180.8 11.2335C181.638 6.41116 184.564 4 189.578 4C191.648 4 193.218 4.44984 194.288 5.34953C195.359 6.23122 195.894 7.44579 195.894 8.99325C195.894 9.62303 195.805 10.2618 195.626 10.9096C195.466 11.5574 195.305 12.0432 195.145 12.3671L194.877 12.8529H190.14C190.604 12.2051 190.836 11.4584 190.836 10.6127C190.836 8.99325 190.167 8.18354 188.829 8.18354C187.027 8.18354 185.947 9.23617 185.59 11.3414L184.68 16.5236C184.591 17.0094 184.546 17.4863 184.546 17.9541C184.546 19.1957 185.269 19.8165 186.714 19.8165C188.177 19.8165 189.114 19.0787 189.524 17.6032H187.33L187.865 14.6073H194.957L194.529 16.9285L194.395 17.7112C193.646 21.9037 190.809 24 185.885 24Z" fill="#1AD99B"/>
<path d="M209.11 23.6221H195.675L199.074 4.18893H212.509L211.759 8.39946H203.142L202.526 12.0432H209.645L208.896 16.2537H201.777L201.241 19.4116H209.859L209.11 23.6221Z" fill="#1AD99B"/>
<path d="M229.572 4.18893L226.2 23.6221H221.356L217.984 12.9879L216.164 23.6221H211.32L214.719 4.18893H219.697L223.015 14.1215L224.755 4.18893H229.572Z" fill="#1AD99B"/>
<path d="M240.001 4.18893C242.338 4.18893 244.006 4.78273 245.005 5.97031C245.737 6.87 246.103 7.9946 246.103 9.34413C246.103 9.82996 246.058 10.3428 245.969 10.8826L244.925 16.9015C244.568 18.9348 243.694 20.5632 242.302 21.7868C240.911 23.0103 239.109 23.6221 236.896 23.6221H229.108L232.507 4.18893H240.001ZM238.315 8.39946H236.575L234.675 19.4116H237.217C238.056 19.4116 238.707 19.1867 239.171 18.7368C239.653 18.269 239.983 17.5133 240.161 16.4696L240.938 12.0432C241.009 11.6473 241.045 11.2874 241.045 10.9636C241.045 9.25416 240.135 8.39946 238.315 8.39946Z" fill="#1AD99B"/>
<path d="M259.574 23.6221H246.139L249.537 4.18893H262.973L262.223 8.39946H253.605L252.99 12.0432H260.109L259.36 16.2537H252.241L251.705 19.4116H260.323L259.574 23.6221Z" fill="#1AD99B"/>
<path d="M270 4.18893L266.628 23.6221H261.784L265.183 4.18893H270Z" fill="#1AD99B"/>
<path d="M172.732 23.6221L172.893 19.3846H168.423L167.112 23.6221H162L168.878 4.18893H177.71L177.817 23.6221H172.732ZM171.635 8.91228L169.52 15.7679H173.026L173.321 8.91228H171.635Z" fill="#0E7855"/>
<path d="M186.194 24C183.661 24 181.912 23.4062 180.949 22.2186C180.289 21.3909 179.958 20.2573 179.958 18.8178C179.958 18.152 180.03 17.4233 180.173 16.6316L181.109 11.2335C181.948 6.41116 184.874 4 189.888 4C191.957 4 193.527 4.44984 194.598 5.34953C195.668 6.23122 196.204 7.44579 196.204 8.99325C196.204 9.62303 196.115 10.2618 195.936 10.9096C195.776 11.5574 195.615 12.0432 195.454 12.3671L195.187 12.8529H190.45C190.914 12.2051 191.145 11.4584 191.145 10.6127C191.145 8.99325 190.476 8.18354 189.138 8.18354C187.336 8.18354 186.257 9.23617 185.9 11.3414L184.99 16.5236C184.901 17.0094 184.856 17.4863 184.856 17.9541C184.856 19.1957 185.579 19.8165 187.024 19.8165C188.487 19.8165 189.424 19.0787 189.834 17.6032H187.64L188.175 14.6073H195.267L194.839 16.9285L194.705 17.7112C193.956 21.9037 191.119 24 186.194 24Z" fill="#0E7855"/>
<path d="M209.42 23.6221H195.984L199.383 4.18893H212.818L212.069 8.39946H203.451L202.836 12.0432H209.955L209.205 16.2537H202.086L201.551 19.4116H210.169L209.42 23.6221Z" fill="#0E7855"/>
<path d="M229.882 4.18893L226.51 23.6221H221.666L218.294 12.9879L216.474 23.6221H211.63L215.028 4.18893H220.006L223.325 14.1215L225.065 4.18893H229.882Z" fill="#0E7855"/>
<path d="M240.31 4.18893C242.648 4.18893 244.316 4.78273 245.315 5.97031C246.047 6.87 246.412 7.9946 246.412 9.34413C246.412 9.82996 246.368 10.3428 246.279 10.8826L245.235 16.9015C244.878 18.9348 244.004 20.5632 242.612 21.7868C241.22 23.0103 239.418 23.6221 237.206 23.6221H229.418L232.817 4.18893H240.31ZM238.624 8.39946H236.885L234.985 19.4116H237.527C238.366 19.4116 239.017 19.1867 239.481 18.7368C239.963 18.269 240.293 17.5133 240.471 16.4696L241.247 12.0432C241.319 11.6473 241.354 11.2874 241.354 10.9636C241.354 9.25416 240.444 8.39946 238.624 8.39946Z" fill="#0E7855"/>
<path d="M259.883 23.6221H246.448L249.847 4.18893H263.282L262.533 8.39946H253.915L253.3 12.0432H260.419L259.669 16.2537H252.55L252.015 19.4116H260.633L259.883 23.6221Z" fill="#0E7855"/>
<path d="M270.31 4.18893L266.938 23.6221H262.093L265.492 4.18893H270.31Z" fill="#0E7855"/>
<path d="M18.958 28.2921C18.7462 28.3253 18.5274 28.3087 18.3184 28.2404C17.6891 28.0333 2.88428 23.0566 1.42823 13.775C0.640702 8.75496 4.07622 4.03132 9.08646 3.24534C11.2094 2.91229 13.3795 3.3558 15.2217 4.46992C16.6342 2.84522 18.5635 1.75862 20.6872 1.42547C25.6975 0.639472 30.4144 4.08419 31.202 9.10426C32.658 18.3859 20.0883 27.6569 19.5527 28.0468C19.3739 28.1768 19.1698 28.2589 18.958 28.2921Z" fill="#64F1A6"/>
<path d="M37.9281 28.0788C37.7157 28.0496 37.511 27.9707 37.3305 27.8452C36.7874 27.4657 24.0418 18.438 25.3191 9.13015C26.01 4.09586 30.6598 0.561081 35.6842 1.25058C37.8132 1.54273 39.7638 2.59214 41.2073 4.18937C43.0277 3.04004 45.1881 2.55478 47.3178 2.84704C52.3423 3.53654 55.868 8.19325 55.1772 13.2275C53.8998 22.5354 39.1934 27.7959 38.5683 28.015C38.3596 28.088 38.1405 28.1079 37.9281 28.0788Z" fill="#40EB8F"/>
<path d="M29.0681 27.2742C28.8537 27.2742 28.6401 27.2238 28.4442 27.124C27.8546 26.8218 14 19.6108 14 10.2157C14 5.13425 18.1261 1.00012 23.1976 1.00012C25.3465 1.00012 27.4217 1.77459 29.0689 3.16074C30.7162 1.77459 32.7905 1.00012 34.9402 1.00012C40.0118 1.00012 44.1379 5.13425 44.1379 10.2157C44.1379 19.6108 30.2832 26.8218 29.6937 27.124C29.4968 27.2247 29.2825 27.2742 29.0681 27.2742Z" fill="#09DA6A"/>
</svg>
