<svg width="231" height="22" viewBox="0 0 231 22" fill="none" xmlns="http://www.w3.org/2000/svg">
<path d="M9.95053 15.0823H6.44724L5.2991 21.5843H0L3.73881 0.207828H12.7178C14.9356 0.207828 16.5155 0.722447 17.4576 1.75169C18.1445 2.54341 18.488 3.55286 18.488 4.78003C18.488 5.19568 18.4487 5.63113 18.3702 6.08637L17.7814 9.4413C17.487 11.0841 16.6235 12.4399 15.1908 13.5088C13.758 14.5578 12.0113 15.0823 9.95053 15.0823ZM10.8632 4.83941H8.2136L7.2421 10.4507H9.86221C11.4716 10.4507 12.4038 9.7283 12.659 8.2834L12.865 7.06613C12.9043 6.88799 12.9239 6.65047 12.9239 6.35358C12.9239 6.05668 12.7767 5.73009 12.4823 5.37382C12.1879 5.01754 11.6482 4.83941 10.8632 4.83941Z" fill="#1AD99B"/>
<path d="M30.0897 0.207828C32.3271 0.207828 33.9168 0.702654 34.8589 1.69231C35.5654 2.44444 35.9187 3.39451 35.9187 4.54251C35.9187 4.93837 35.8794 5.35403 35.8009 5.78947L35.3888 8.10526C35.1532 9.39181 34.7411 10.4309 34.1523 11.2227C33.5831 12.0144 32.9453 12.5785 32.2387 12.915L34.9177 21.5843H28.971L26.4981 13.5978H24.6728L23.4658 21.5843H17.8134L21.5522 0.207828H30.0897ZM28.235 4.83941H26.027L25.2616 10.0054H27.3224C28.3625 10.0054 29.1083 9.75799 29.5598 9.26316C30.0112 8.74854 30.2369 8.07557 30.2369 7.24427C30.2369 5.64103 29.5696 4.83941 28.235 4.83941Z" fill="#1AD99B"/>
<path d="M47.4813 0C52.2112 0 54.5762 1.94962 54.5762 5.84885C54.5762 6.50203 54.5075 7.20468 54.3701 7.95682L53.3397 13.8947C52.8687 16.646 51.8481 18.6847 50.278 20.0108C48.7079 21.3369 46.5 22 43.6541 22C40.8083 22 38.8261 21.3369 37.7074 20.0108C36.9419 19.1003 36.5592 17.8435 36.5592 16.2402C36.5592 15.5277 36.6377 14.7458 36.7947 13.8947L37.8251 7.95682C38.7476 2.65227 41.9663 0 47.4813 0ZM44.449 17.3981C45.4303 17.3981 46.2154 17.1408 46.8042 16.6262C47.3929 16.1116 47.8051 15.1615 48.0406 13.776L49.0416 8.07557C49.1004 7.67971 49.1299 7.32344 49.1299 7.00675C49.1299 5.40351 48.3252 4.60189 46.7158 4.60189C44.6943 4.64148 43.4873 5.79937 43.0948 8.07557L42.0938 13.776C42.0153 14.2708 41.9761 14.7854 41.9761 15.3198C41.9761 16.7054 42.8004 17.3981 44.449 17.3981Z" fill="#1AD99B"/>
<path d="M74.6967 0.207828L70.9873 21.5843H65.6588L61.9494 9.88664L59.9475 21.5843H54.619L58.3578 0.207828H63.8335L67.484 11.1336L69.3976 0.207828H74.6967Z" fill="#1AD99B"/>
<path d="M95.1764 4.83941H87.9343L85.0198 21.5843H79.6913L82.6058 4.83941H75.3342L76.1585 0.207828H96.0007L95.1764 4.83941Z" fill="#1AD99B"/>
<path d="M105.176 0C109.906 0 112.271 1.94962 112.271 5.84885C112.271 6.50203 112.203 7.20468 112.065 7.95682L111.035 13.8947C110.564 16.646 109.543 18.6847 107.973 20.0108C106.403 21.3369 104.195 22 101.349 22C98.5035 22 96.5212 21.3369 95.4025 20.0108C94.6371 19.1003 94.2544 17.8435 94.2544 16.2402C94.2544 15.5277 94.3329 14.7458 94.4899 13.8947L95.5203 7.95682C96.4427 2.65227 99.6614 0 105.176 0ZM102.144 17.3981C103.125 17.3981 103.911 17.1408 104.499 16.6262C105.088 16.1116 105.5 15.1615 105.736 13.776L106.737 8.07557C106.796 7.67971 106.825 7.32344 106.825 7.00675C106.825 5.40351 106.02 4.60189 104.411 4.60189C102.39 4.64148 101.182 5.79937 100.79 8.07557L99.789 13.776C99.7105 14.2708 99.6713 14.7854 99.6713 15.3198C99.6713 16.7054 100.496 17.3981 102.144 17.3981Z" fill="#1AD99B"/>
<path d="M122.565 21.5843L122.741 16.9231H117.825L116.382 21.5843H110.759L118.325 0.207828H128.04L128.158 21.5843H122.565ZM121.358 5.40351L119.032 12.9447H122.888L123.212 5.40351H121.358Z" fill="#1AD99B"/>
<path d="M137.373 22C134.586 22 132.663 21.3468 131.603 20.0405C130.877 19.13 130.514 17.883 130.514 16.2996C130.514 15.5673 130.592 14.7656 130.749 13.8947L131.78 7.95682C132.702 2.65227 135.921 0 141.436 0C143.712 0 145.439 0.494827 146.617 1.48448C147.795 2.45434 148.383 3.79037 148.383 5.49258C148.383 6.18533 148.285 6.88799 148.089 7.60054C147.912 8.31309 147.736 8.8475 147.559 9.20378L147.265 9.73819H142.054C142.564 9.02564 142.819 8.20423 142.819 7.27395C142.819 5.49258 142.083 4.60189 140.611 4.60189C138.629 4.60189 137.442 5.75978 137.049 8.07557L136.048 13.776C135.95 14.3104 135.901 14.8349 135.901 15.3495C135.901 16.7153 136.696 17.3981 138.286 17.3981C139.895 17.3981 140.925 16.5866 141.377 14.9636H138.963L139.552 11.668H147.353L146.882 14.2213L146.735 15.0823C145.911 19.6941 142.79 22 137.373 22Z" fill="#1AD99B"/>
<path d="M162.921 21.5843H148.142L151.881 0.207828H166.66L165.835 4.83941H156.356L155.679 8.8475H163.51L162.685 13.4791H154.854L154.266 16.9528H163.745L162.921 21.5843Z" fill="#1AD99B"/>
<path d="M185.43 0.207828L181.72 21.5843H176.392L172.682 9.88664L170.68 21.5843H165.352L169.091 0.207828H174.566L178.217 11.1336L180.13 0.207828H185.43Z" fill="#1AD99B"/>
<path d="M196.901 0.207828C199.472 0.207828 201.307 0.860999 202.406 2.16734C203.211 3.157 203.613 4.39406 203.613 5.87854C203.613 6.41296 203.564 6.97706 203.466 7.57085L202.318 14.1916C201.925 16.4282 200.964 18.2195 199.433 19.5655C197.902 20.9114 195.92 21.5843 193.486 21.5843H184.919L188.658 0.207828H196.901ZM195.046 4.83941H193.133L191.042 16.9528H193.839C194.762 16.9528 195.478 16.7054 195.988 16.2105C196.518 15.6959 196.881 14.8646 197.078 13.7166L197.931 8.8475C198.01 8.41206 198.049 8.01619 198.049 7.65992C198.049 5.77958 197.048 4.83941 195.046 4.83941Z" fill="#1AD99B"/>
<path d="M218.431 21.5843H203.652L207.391 0.207828H222.17L221.346 4.83941H211.866L211.189 8.8475H219.02L218.195 13.4791H210.365L209.776 16.9528H219.255L218.431 21.5843Z" fill="#1AD99B"/>
<path d="M229.9 0.207828L226.191 21.5843H220.862L224.601 0.207828H229.9Z" fill="#1AD99B"/>
<path d="M122.905 21.5843L123.082 16.9231H118.165L116.723 21.5843H111.1L118.666 0.207828H128.381L128.499 21.5843H122.905ZM121.698 5.40351L119.372 12.9447H123.229L123.553 5.40351H121.698Z" fill="#0E7855"/>
<path d="M137.714 22C134.927 22 133.003 21.3468 131.944 20.0405C131.217 19.13 130.854 17.883 130.854 16.2996C130.854 15.5673 130.933 14.7656 131.09 13.8947L132.12 7.95682C133.043 2.65227 136.261 0 141.776 0C144.053 0 145.78 0.494827 146.958 1.48448C148.135 2.45434 148.724 3.79037 148.724 5.49258C148.724 6.18533 148.626 6.88799 148.43 7.60054C148.253 8.31309 148.076 8.8475 147.9 9.20378L147.605 9.73819H142.395C142.905 9.02564 143.16 8.20423 143.16 7.27395C143.16 5.49258 142.424 4.60189 140.952 4.60189C138.97 4.60189 137.782 5.75978 137.39 8.07557L136.389 13.776C136.291 14.3104 136.242 14.8349 136.242 15.3495C136.242 16.7153 137.037 17.3981 138.626 17.3981C140.236 17.3981 141.266 16.5866 141.717 14.9636H139.303L139.892 11.668H147.694L147.223 14.2213L147.075 15.0823C146.251 19.6941 143.131 22 137.714 22Z" fill="#0E7855"/>
<path d="M163.261 21.5843H148.483L152.222 0.207828H167L166.176 4.83941H156.696L156.019 8.8475H163.85L163.026 13.4791H155.195L154.606 16.9528H164.086L163.261 21.5843Z" fill="#0E7855"/>
<path d="M185.77 0.207828L182.061 21.5843H176.732L173.023 9.88664L171.021 21.5843H165.692L169.431 0.207828H174.907L178.558 11.1336L180.471 0.207828H185.77Z" fill="#0E7855"/>
<path d="M197.241 0.207828C199.813 0.207828 201.648 0.860999 202.747 2.16734C203.551 3.157 203.954 4.39406 203.954 5.87854C203.954 6.41296 203.905 6.97706 203.806 7.57085L202.658 14.1916C202.266 16.4282 201.304 18.2195 199.773 19.5655C198.242 20.9114 196.26 21.5843 193.827 21.5843H185.26L188.998 0.207828H197.241ZM195.387 4.83941H193.473L191.383 16.9528H194.18C195.102 16.9528 195.819 16.7054 196.329 16.2105C196.859 15.6959 197.222 14.8646 197.418 13.7166L198.272 8.8475C198.35 8.41206 198.39 8.01619 198.39 7.65992C198.39 5.77958 197.389 4.83941 195.387 4.83941Z" fill="#0E7855"/>
<path d="M218.772 21.5843H203.993L207.732 0.207828H222.51L221.686 4.83941H212.207L211.53 8.8475H219.36L218.536 13.4791H210.705L210.116 16.9528H219.596L218.772 21.5843Z" fill="#0E7855"/>
<path d="M230.241 0.207828L226.531 21.5843H221.203L224.942 0.207828H230.241Z" fill="#0E7855"/>
</svg>
